DBRep_DrawableShape

CASCADE Topology V1, (c) Matra-Datavision
Locations 0
Curve2ds 16
1 3.1415926535897931 0 0 1 
1 0 0 1 0 
1 6.2831853071795862 0 0 1 
1 6.2831853071795862 3.2000000000000002 -1 0 
1 6.2831853071795862 0 0 1 
1 3.1415926535897931 0 0 1 
1 0 0 1 0 
1 6.2831853071795862 3.2000000000000002 -1 0 
1 3.1415926535897931 0 0 1 
1 0 0 1 0 
1 6.2831853071795862 0 0 1 
1 6.2831853071795862 3.2000000000000002 -1 0 
1 6.2831853071795862 0 0 1 
1 3.1415926535897931 0 0 1 
1 0 0 1 0 
1 6.2831853071795862 3.2000000000000002 -1 0 
Curves 50
1 9 0 3.25 0 1 0 
2 9 0 6.25 0 1 0 0 -0 1 1 0 -0 3
1 9 0 9.25 0 1 0 
2 9 3.2000000000000002 6.25 0 -1 0 0 0 1 -1 0 0 3
1 16 3.2000000000000002 3.25 1 0 0 
1 6 0 3.25 -1 0 0 
1 12 0 3.25 0 1 0 
1 12 0 9.25 0 1 0 
2 12 0 6.25 0 1 0 0 0 -1 -1 0 0 3
2 12 3.2000000000000002 6.25 0 -1 0 0 0 -1 1 0 0 3
1 14.5 3.2000000000000002 9.25 -1 0 0 
1 4.5 0 9.25 1 0 0 
1 0 12 3.25 1 0 0 
2 0 12 6.25 1 0 0 0 0 1 0 -1 0 3
1 0 12 9.25 1 0 0 
2 3.2000000000000002 12 6.25 -1 0 0 0 0 1 0 1 -0 3
1 3.2000000000000002 6.0999999999999996 3.25 0 -1 0 
1 0 14.5 3.25 0 1 0 
1 0 9 3.25 1 0 0 
1 0 9 9.25 1 0 0 
2 0 9 6.25 1 0 0 0 0 -1 -0 1 0 3
2 3.2000000000000002 9 6.25 -1 0 0 0 0 -1 -0 -1 -0 3
1 3.2000000000000002 7.5999999999999996 9.25 0 1 0 
1 0 16 9.25 0 -1 0 
1 3.2000000000000002 20 0 0 -1 0 
1 3.2000000000000002 3.2000000000000002 0 1 0 0 
1 20 3.2000000000000002 0 -0.70710678118654757 0.70710678118654757 0 
1 20 3.2000000000000002 0 0 0 -1 
1 20 3.2000000000000002 -2.25 -0.70710678118654757 0.70710678118654757 0 
1 3.2000000000000002 20 0 0 0 -1 
1 0 20 -2.25 0 -1 0 
1 3.2000000000000002 20 -2.25 -1 0 0 
1 20 0 -2.25 0 1 0 
1 0 0 -2.25 1 0 0 
1 20 3.2000000000000002 12.5 -0.70710678118654757 0.70710678118654757 0 
1 3.2000000000000002 20 12.5 0 0 1 
1 20 3.2000000000000002 14.75 -0.70710678118654757 0.70710678118654757 0 
1 20 3.2000000000000002 12.5 0 0 1 
1 0 20 14.75 0 -1 0 
1 0 0 14.75 1 0 0 
1 20 0 14.75 0 1 0 
1 3.2000000000000002 20 14.75 -1 0 0 
1 3.2000000000000002 20 12.5 0 1 0 
1 3.2000000000000002 3.2000000000000002 12.5 -1 0 0 
1 0 20 0 0 0 -1 
1 3.2000000000000002 20 0 0 0 1 
1 3.2000000000000002 3.2000000000000002 0 0 0 1 
1 20 3.2000000000000002 0 0 0 1 
1 20 0 0 0 0 -1 
1 0 0 0 0 0 1 
Polygon3D 0
PolygonOnTriangulations 100
2 2 1 
p 0.0800000008 1 0 3.2 
2 3 4 
p 0.0800000008 1 0 3.2 
19 2 3 4 5 6 7 8 9 10 11 12 13 14 15 16 17 18 19 20 
p 0.0800000008 1 3.14159265358979 3.31612557878923 3.49065850398866 3.66519142918809 3.83972435438752 4.01425727958696 4.18879020478639 4.36332312998582 4.53785605518526 4.71238898038469 4.88692190558412 5.06145483078355 5.23598775598299 5.41052068118242 5.58505360638185 5.75958653158128 5.93411945678072 6.10865238198015 6.28318530717959 
19 24 25 26 27 28 29 30 31 32 33 34 35 36 37 38 39 40 41 42 
p 0.0800000008 1 3.14159265358979 3.31612557878923 3.49065850398866 3.66519142918809 3.83972435438752 4.01425727958696 4.18879020478639 4.36332312998582 4.53785605518526 4.71238898038469 4.88692190558412 5.06145483078355 5.23598775598299 5.41052068118242 5.58505360638185 5.75958653158128 5.93411945678072 6.10865238198015 6.28318530717959 
2 20 21 
p 0.0800000008 1 0 3.2 
2 2 1 
p 0.0800000008 1 0 3.2 
19 21 22 23 24 25 26 27 28 29 30 31 32 33 34 35 36 37 38 1 
p 0.0800000008 1 0 0.174532925199433 0.349065850398866 0.523598775598299 0.698131700797732 0.872664625997165 1.0471975511966 1.22173047639603 1.39626340159546 1.5707963267949 1.74532925199433 1.91986217719376 2.0943951023932 2.26892802759263 2.44346095279206 2.61799387799149 2.79252680319093 2.96705972839036 3.14159265358979 
19 24 25 26 27 28 29 30 31 32 33 34 35 36 37 38 39 40 41 42 
p 0.0800000008 1 0 0.174532925199433 0.349065850398866 0.523598775598299 0.698131700797732 0.872664625997165 1.0471975511966 1.22173047639603 1.39626340159546 1.5707963267949 1.74532925199433 1.91986217719376 2.0943951023932 2.26892802759263 2.44346095279206 2.61799387799149 2.79252680319093 2.96705972839036 3.14159265358979 
2 4 1 
p 0.0800000008 1 -7 -4 
2 42 5 
p 0.0800000008 1 -7 -4 
2 2 3 
p 0.0800000008 1 -6 -3 
2 23 24 
p 0.0800000008 1 -6 -3 
2 2 1 
p 0.0800000008 1 0 3.2 
2 20 21 
p 0.0800000008 1 0 3.2 
2 2 1 
p 0.0800000008 1 0 3.2 
2 3 4 
p 0.0800000008 1 0 3.2 
19 2 3 4 5 6 7 8 9 10 11 12 13 14 15 16 17 18 19 20 
p 0.0800000008 1 3.14159265358979 3.31612557878923 3.49065850398866 3.66519142918809 3.83972435438752 4.01425727958696 4.18879020478639 4.36332312998582 4.53785605518526 4.71238898038469 4.88692190558412 5.06145483078355 5.23598775598299 5.41052068118242 5.58505360638185 5.75958653158128 5.93411945678072 6.10865238198015 6.28318530717959 
19 5 6 7 8 9 10 11 12 13 14 15 16 17 18 19 20 21 22 23 
p 0.0800000008 1 3.14159265358979 3.31612557878923 3.49065850398866 3.66519142918809 3.83972435438752 4.01425727958696 4.18879020478639 4.36332312998582 4.53785605518526 4.71238898038469 4.88692190558412 5.06145483078355 5.23598775598299 5.41052068118242 5.58505360638185 5.75958653158128 5.93411945678072 6.10865238198015 6.28318530717959 
19 21 22 23 24 25 26 27 28 29 30 31 32 33 34 35 36 37 38 1 
p 0.0800000008 1 0 0.174532925199433 0.349065850398866 0.523598775598299 0.698131700797732 0.872664625997165 1.0471975511966 1.22173047639603 1.39626340159546 1.5707963267949 1.74532925199433 1.91986217719376 2.0943951023932 2.26892802759263 2.44346095279206 2.61799387799149 2.79252680319093 2.96705972839036 3.14159265358979 
19 5 6 7 8 9 10 11 12 13 14 15 16 17 18 19 20 21 22 23 
p 0.0800000008 1 0 0.174532925199433 0.349065850398866 0.523598775598299 0.698131700797732 0.872664625997165 1.0471975511966 1.22173047639603 1.39626340159546 1.5707963267949 1.74532925199433 1.91986217719376 2.0943951023932 2.26892802759263 2.44346095279206 2.61799387799149 2.79252680319093 2.96705972839036 3.14159265358979 
2 4 1 
p 0.0800000008 1 2.5 5.5 
2 23 24 
p 0.0800000008 1 2.5 5.5 
2 2 3 
p 0.0800000008 1 4.5 7.5 
2 42 5 
p 0.0800000008 1 4.5 7.5 
2 2 1 
p 0.0800000008 1 0 3.2 
2 3 4 
p 0.0800000008 1 0 3.2 
19 2 3 4 5 6 7 8 9 10 11 12 13 14 15 16 17 18 19 20 
p 0.0800000008 1 3.14159265358979 3.31612557878923 3.49065850398866 3.66519142918809 3.83972435438752 4.01425727958696 4.18879020478639 4.36332312998582 4.53785605518526 4.71238898038469 4.88692190558412 5.06145483078355 5.23598775598299 5.41052068118242 5.58505360638185 5.75958653158128 5.93411945678072 6.10865238198015 6.28318530717959 
19 24 25 26 27 28 29 30 31 32 33 34 35 36 37 38 39 40 41 42 
p 0.0800000008 1 3.14159265358979 3.31612557878923 3.49065850398866 3.66519142918809 3.83972435438752 4.01425727958696 4.18879020478639 4.36332312998582 4.53785605518526 4.71238898038469 4.88692190558412 5.06145483078355 5.23598775598299 5.41052068118242 5.58505360638185 5.75958653158128 5.93411945678072 6.10865238198015 6.28318530717959 
2 20 21 
p 0.0800000008 1 0 3.2 
2 2 1 
p 0.0800000008 1 0 3.2 
19 21 22 23 24 25 26 27 28 29 30 31 32 33 34 35 36 37 38 1 
p 0.0800000008 1 0 0.174532925199433 0.349065850398866 0.523598775598299 0.698131700797732 0.872664625997165 1.0471975511966 1.22173047639603 1.39626340159546 1.5707963267949 1.74532925199433 1.91986217719376 2.0943951023932 2.26892802759263 2.44346095279206 2.61799387799149 2.79252680319093 2.96705972839036 3.14159265358979 
19 24 25 26 27 28 29 30 31 32 33 34 35 36 37 38 39 40 41 42 
p 0.0800000008 1 0 0.174532925199433 0.349065850398866 0.523598775598299 0.698131700797732 0.872664625997165 1.0471975511966 1.22173047639603 1.39626340159546 1.5707963267949 1.74532925199433 1.91986217719376 2.0943951023932 2.26892802759263 2.44346095279206 2.61799387799149 2.79252680319093 2.96705972839036 3.14159265358979 
2 4 1 
p 0.0800000008 1 -5.9 -2.9 
2 42 5 
p 0.0800000008 1 -5.9 -2.9 
2 2 3 
p 0.0800000008 1 -5.5 -2.5 
2 23 24 
p 0.0800000008 1 -5.5 -2.5 
2 2 1 
p 0.0800000008 1 0 3.2 
2 20 21 
p 0.0800000008 1 0 3.2 
2 2 1 
p 0.0800000008 1 0 3.2 
2 3 4 
p 0.0800000008 1 0 3.2 
19 2 3 4 5 6 7 8 9 10 11 12 13 14 15 16 17 18 19 20 
p 0.0800000008 1 3.14159265358979 3.31612557878923 3.49065850398866 3.66519142918809 3.83972435438752 4.01425727958696 4.18879020478639 4.36332312998582 4.53785605518526 4.71238898038469 4.88692190558412 5.06145483078355 5.23598775598299 5.41052068118242 5.58505360638185 5.75958653158128 5.93411945678072 6.10865238198015 6.28318530717959 
19 5 6 7 8 9 10 11 12 13 14 15 16 17 18 19 20 21 22 23 
p 0.0800000008 1 3.14159265358979 3.31612557878923 3.49065850398866 3.66519142918809 3.83972435438752 4.01425727958696 4.18879020478639 4.36332312998582 4.53785605518526 4.71238898038469 4.88692190558412 5.06145483078355 5.23598775598299 5.41052068118242 5.58505360638185 5.75958653158128 5.93411945678072 6.10865238198015 6.28318530717959 
19 21 22 23 24 25 26 27 28 29 30 31 32 33 34 35 36 37 38 1 
p 0.0800000008 1 0 0.174532925199433 0.349065850398866 0.523598775598299 0.698131700797732 0.872664625997165 1.0471975511966 1.22173047639603 1.39626340159546 1.5707963267949 1.74532925199433 1.91986217719376 2.0943951023932 2.26892802759263 2.44346095279206 2.61799387799149 2.79252680319093 2.96705972839036 3.14159265358979 
19 5 6 7 8 9 10 11 12 13 14 15 16 17 18 19 20 21 22 23 
p 0.0800000008 1 0 0.174532925199433 0.349065850398866 0.523598775598299 0.698131700797732 0.872664625997165 1.0471975511966 1.22173047639603 1.39626340159546 1.5707963267949 1.74532925199433 1.91986217719376 2.0943951023932 2.26892802759263 2.44346095279206 2.61799387799149 2.79252680319093 2.96705972839036 3.14159265358979 
2 4 1 
p 0.0800000008 1 1.4 4.4 
2 23 24 
p 0.0800000008 1 1.4 4.4 
2 2 3 
p 0.0800000008 1 4 7 
2 42 5 
p 0.0800000008 1 4 7 
2 1 2 
p 0.0800000008 1 0 16.8 
2 2 1 
p 0.0800000008 1 0 16.8 
2 2 3 
p 0.0800000008 1 0 16.8 
2 2 1 
p 0.0800000008 1 0 16.8 
2 3 1 
p 0.0800000008 1 0 23.758787847868 
2 4 1 
p 0.0800000008 1 0 23.758787847868 
2 4 3 
p 0.0800000008 1 0 2.25 
2 1 6 
p 0.0800000008 1 0 2.25 
2 3 2 
p 0.0800000008 1 0 23.758787847868 
2 3 4 
p 0.0800000008 1 0 23.758787847868 
2 1 2 
p 0.0800000008 1 0 2.25 
2 5 6 
p 0.0800000008 1 0 2.25 
2 5 1 
p 0.0800000008 1 0 20 
2 4 1 
p 0.0800000008 1 0 20 
2 4 5 
p 0.0800000008 1 0 3.2 
2 6 1 
p 0.0800000008 1 0 3.2 
2 2 3 
p 0.0800000008 1 0 3.2 
2 5 6 
p 0.0800000008 1 0 3.2 
2 1 2 
p 0.0800000008 1 0 20 
2 4 1 
p 0.0800000008 1 0 20 
2 1 2 
p 0.0800000008 1 0 23.758787847868 
2 2 3 
p 0.0800000008 1 0 23.758787847868 
2 2 3 
p 0.0800000008 1 0 2.25 
2 4 3 
p 0.0800000008 1 0 2.25 
2 4 3 
p 0.0800000008 1 0 23.758787847868 
2 4 5 
p 0.0800000008 1 0 23.758787847868 
2 1 4 
p 0.0800000008 1 0 2.25 
2 2 3 
p 0.0800000008 1 0 2.25 
2 1 2 
p 0.0800000008 1 0 20 
2 3 2 
p 0.0800000008 1 0 20 
2 2 3 
p 0.0800000008 1 0 20 
2 3 2 
p 0.0800000008 1 0 20 
2 3 4 
p 0.0800000008 1 0 3.2 
2 4 3 
p 0.0800000008 1 0 3.2 
2 5 1 
p 0.0800000008 1 0 3.2 
2 3 2 
p 0.0800000008 1 0 3.2 
2 1 3 
p 0.0800000008 1 -16.8 0 
2 4 3 
p 0.0800000008 1 -16.8 0 
2 2 1 
p 0.0800000008 1 -16.8 0 
2 4 3 
p 0.0800000008 1 -16.8 0 
2 2 1 
p 0.0800000008 1 -14.75 2.25 
2 3 4 
p 0.0800000008 1 -14.75 2.25 
2 5 4 
p 0.0800000008 1 0 12.5 
2 2 3 
p 0.0800000008 1 0 12.5 
2 1 4 
p 0.0800000008 1 0 12.5 
2 2 3 
p 0.0800000008 1 0 12.5 
2 1 4 
p 0.0800000008 1 0 12.5 
2 1 2 
p 0.0800000008 1 0 12.5 
2 4 5 
p 0.0800000008 1 -14.75 2.25 
2 2 1 
p 0.0800000008 1 -14.75 2.25 
2 4 3 
p 0.0800000008 1 -2.25 14.75 
2 1 2 
p 0.0800000008 1 -2.25 14.75 
Surfaces 20
2 9 0 6.25 0 1 0 0 -0 1 1 0 -0 3
1 12 0 3.25 0 0 -1 -1 0 0 0 1 0 
2 12 0 6.25 0 1 0 0 0 -1 -1 0 0 3
1 9 0 9.25 0 0 1 1 0 -0 -0 1 0 
2 0 12 6.25 1 0 0 0 0 1 0 -1 0 3
1 0 9 3.25 0 0 -1 0 1 0 1 -0 0 
2 0 9 6.25 1 0 0 0 0 -1 -0 1 0 3
1 0 12 9.25 0 0 1 0 -1 0 1 0 -0 
1 7.7641298509381498 7.7641298509381498 0 0 0 1 1 0 -0 -0 1 0 
1 20 3.2000000000000002 0 -0.70710678118654757 -0.70710678118654757 0 -0.70710678118654757 0.70710678118654757 0 -0 0 -1 
1 7.7641298509381498 7.7641298509381498 -2.25 0 0 1 1 0 -0 -0 1 0 
1 20 3.2000000000000002 12.5 0.70710678118654757 0.70710678118654757 0 -0.70710678118654757 0.70710678118654757 0 0 -0 1 
1 7.7641298509381498 7.7641298509381498 14.75 0 0 1 1 0 -0 -0 1 0 
1 7.7641298509381498 7.7641298509381498 12.5 0 0 1 1 0 -0 -0 1 0 
1 3.2000000000000002 20 0 0 1 0 -1 0 0 0 -0 1 
1 3.2000000000000002 3.2000000000000002 0 1 0 0 -0 1 0 0 -0 1 
1 20 3.2000000000000002 0 0 1 0 -1 0 0 0 -0 1 
1 20 0 0 1 0 0 -0 1 0 0 -0 1 
1 0 0 0 0 -1 0 1 0 0 -0 0 1 
1 0 20 0 -1 0 0 0 -1 0 0 0 1 
Triangulations 20
38 36 1 0.0800000008
9 3.2 3.25 9 0 3.25 8.47905546699921 0 3.29557674096338 7.973939570023 0 3.43092213764227 7.5 0 3.65192378864668 7.07163717094038 0 3.95186667064306 6.70186667064307 0 4.32163717094038 6.40192378864669 0 4.75 6.18092213764228 0 5.22393957002299 6.04557674096338 0 5.7290554669992 6 0 6.24999999999999 6.04557674096337 0 6.77094453300078 6.18092213764227 0 7.276060429977 6.40192378864668 0 7.74999999999999 6.70186667064306 0 8.17836282905961 7.07163717094038 0 8.54813332935693 7.49999999999999 0 8.84807621135331 7.97393957002298 0 9.06907786235772 8.4790554669992 0 9.20442325903662 9 0 9.25 9 3.2 9.25 8.47905546699921 3.2 9.20442325903662 7.97393957002299 3.2 9.06907786235772 7.5 3.2 8.84807621135332 7.07163717094038 3.2 8.54813332935693 6.70186667064307 3.2 8.17836282905962 6.40192378864668 3.2 7.75 6.18092213764228 3.2 7.27606042997701 6.04557674096338 3.2 6.77094453300079 6 3.2 6.25 6.04557674096338 3.2 5.72905546699921 6.18092213764228 3.2 5.22393957002299 6.40192378864668 3.2 4.75 6.70186667064307 3.2 4.32163717094038 7.07163717094038 3.2 3.95186667064307 7.5 3.2 3.65192378864669 7.97393957002299 3.2 3.43092213764228 8.47905546699921 3.2 3.29557674096338 3.14159265358979 3.2 3.14159265358979 0 3.31612557878923 0 3.49065850398866 0 3.66519142918809 0 3.83972435438752 0 4.01425727958696 0 4.18879020478639 0 4.36332312998582 0 4.53785605518526 0 4.71238898038469 0 4.88692190558412 0 5.06145483078355 0 5.23598775598299 0 5.41052068118242 0 5.58505360638185 0 5.75958653158128 0 5.93411945678072 0 6.10865238198015 0 6.28318530717959 0 6.28318530717959 3.2 6.10865238198015 3.2 5.93411945678072 3.2 5.75958653158129 3.2 5.58505360638185 3.2 5.41052068118242 3.2 5.23598775598299 3.2 5.06145483078356 3.2 4.88692190558412 3.2 4.71238898038469 3.2 4.53785605518526 3.2 4.36332312998582 3.2 4.18879020478639 3.2 4.01425727958696 3.2 3.83972435438753 3.2 3.66519142918809 3.2 3.49065850398866 3.2 3.31612557878923 3.2 3 1 2 38 3 37 36 5 35 34 7 33 32 9 31 30 11 29 28 13 27 26 15 25 24 17 23 22 19 21 29 11 12 28 12 13 27 13 14 26 14 15 25 15 16 24 16 17 23 17 18 20 21 19 22 18 19 23 18 22 30 10 11 25 16 24 31 9 10 27 14 26 32 8 9 29 12 28 33 7 8 31 10 30 33 8 32 35 5 6 36 4 5 37 4 36 37 3 4 38 1 3 7 35 6 35 7 34 
4 2 1 0.0800000008
12 3.2 3.25 12 0 3.25 9 0 3.25 9 3.2 3.25 0 3.2 0 0 3 0 3 3.2 3 4 1 3 1 2 
42 42 1 0.0800000008
20 0 -2.25 20 0 14.75 0 0 14.75 0 0 -2.25 12 0 9.25 12.5209445330008 0 9.20442325903662 13.026060429977 0 9.06907786235773 13.5 0 8.84807621135332 13.9283628290596 0 8.54813332935694 14.2981333293569 0 8.17836282905962 14.5980762113533 0 7.75 14.8190778623577 0 7.27606042997701 14.9544232590366 0 6.7709445330008 15 0 6.25000000000001 14.9544232590366 0 5.72905546699922 14.8190778623577 0 5.223939570023 14.5980762113533 0 4.75000000000001 14.2981333293569 0 4.32163717094039 13.9283628290596 0 3.95186667064307 13.5 0 3.65192378864669 13.026060429977 0 3.43092213764228 12.5209445330008 0 3.29557674096338 12 0 3.25 9 0 3.25 8.47905546699921 0 3.29557674096338 7.973939570023 0 3.43092213764227 7.5 0 3.65192378864668 7.07163717094038 0 3.95186667064306 6.70186667064307 0 4.32163717094038 6.40192378864669 0 4.75 6.18092213764228 0 5.22393957002299 6.04557674096338 0 5.7290554669992 6 0 6.24999999999999 6.04557674096337 0 6.77094453300078 6.18092213764227 0 7.276060429977 6.40192378864668 0 7.74999999999999 6.70186667064306 0 8.17836282905961 7.07163717094038 0 8.54813332935693 7.49999999999999 0 8.84807621135331 7.97393957002298 0 9.06907786235772 8.4790554669992 0 9.20442325903662 9 0 9.25 20 -2.25 20 14.75 0 14.75 0 -2.25 12 9.25 12.5209445330008 9.20442325903662 13.026060429977 9.06907786235773 13.5 8.84807621135332 13.9283628290596 8.54813332935694 14.2981333293569 8.17836282905962 14.5980762113533 7.75 14.8190778623577 7.27606042997701 14.9544232590366 6.7709445330008 15 6.25000000000001 14.9544232590366 5.72905546699922 14.8190778623577 5.223939570023 14.5980762113533 4.75000000000001 14.2981333293569 4.32163717094039 13.9283628290596 3.95186667064307 13.5 3.65192378864669 13.026060429977 3.43092213764228 12.5209445330008 3.29557674096338 12 3.25 9 3.25 8.47905546699921 3.29557674096338 7.973939570023 3.43092213764227 7.5 3.65192378864668 7.07163717094038 3.95186667064306 6.70186667064307 4.32163717094038 6.40192378864669 4.75 6.18092213764228 5.22393957002299 6.04557674096338 5.7290554669992 6 6.24999999999999 6.04557674096337 6.77094453300078 6.18092213764227 7.276060429977 6.40192378864668 7.74999999999999 6.70186667064306 8.17836282905961 7.07163717094038 8.54813332935693 7.49999999999999 8.84807621135331 7.97393957002298 9.06907786235772 8.4790554669992 9.20442325903662 9 9.25 42 5 2 6 2 5 7 2 6 8 2 7 9 2 8 10 2 9 14 1 2 11 2 10 12 2 11 13 2 12 14 2 13 15 1 14 16 1 15 17 1 16 18 1 17 19 1 18 20 1 19 24 4 1 21 1 20 22 1 21 23 1 22 24 1 23 25 4 24 26 4 25 27 4 26 28 4 27 29 4 28 33 3 4 30 4 29 31 4 30 32 4 31 33 4 32 34 3 33 35 3 34 36 3 35 37 3 36 38 3 37 39 3 38 40 3 39 42 2 3 41 3 40 42 3 41 
4 2 1 0.0800000008
9 3.2 9.25 9 0 9.25 12 0 9.25 12 3.2 9.25 0 3.2 0 0 3 0 3 3.2 3 4 1 3 1 2 
42 42 1 0.0800000008
20 3.2 0 3.2 3.2 0 3.2 3.2 12.5 20 3.2 12.5 12 3.2 3.25 12.5209445330008 3.2 3.29557674096338 13.026060429977 3.2 3.43092213764227 13.5 3.2 3.65192378864668 13.9283628290596 3.2 3.95186667064307 14.2981333293569 3.2 4.32163717094038 14.5980762113533 3.2 4.75 14.8190778623577 3.2 5.22393957002299 14.9544232590366 3.2 5.72905546699921 15 3.2 6.25 14.9544232590366 3.2 6.77094453300079 14.8190778623577 3.2 7.27606042997701 14.5980762113533 3.2 7.75 14.2981333293569 3.2 8.17836282905962 13.9283628290596 3.2 8.54813332935693 13.5 3.2 8.84807621135331 13.026060429977 3.2 9.06907786235772 12.5209445330008 3.2 9.20442325903662 12 3.2 9.25 9 3.2 9.25 8.47905546699921 3.2 9.20442325903662 7.97393957002299 3.2 9.06907786235772 7.5 3.2 8.84807621135332 7.07163717094038 3.2 8.54813332935693 6.70186667064307 3.2 8.17836282905962 6.40192378864668 3.2 7.75 6.18092213764228 3.2 7.27606042997701 6.04557674096338 3.2 6.77094453300079 6 3.2 6.25 6.04557674096338 3.2 5.72905546699921 6.18092213764228 3.2 5.22393957002299 6.40192378864668 3.2 4.75 6.70186667064307 3.2 4.32163717094038 7.07163717094038 3.2 3.95186667064307 7.5 3.2 3.65192378864669 7.97393957002299 3.2 3.43092213764228 8.47905546699921 3.2 3.29557674096338 9 3.2 3.25 0 0 16.8 0 16.8 12.5 0 12.5 8 3.25 7.47905546699921 3.29557674096338 6.97393957002299 3.43092213764227 6.5 3.65192378864668 6.07163717094038 3.95186667064307 5.70186667064307 4.32163717094038 5.40192378864668 4.75 5.18092213764228 5.22393957002299 5.04557674096338 5.72905546699921 5 6.25 5.04557674096338 6.77094453300079 5.18092213764228 7.27606042997701 5.40192378864668 7.75 5.70186667064307 8.17836282905962 6.07163717094038 8.54813332935693 6.5 8.84807621135331 6.97393957002299 9.06907786235772 7.47905546699921 9.20442325903662 8 9.25 11 9.25 11.5209445330008 9.20442325903662 12.026060429977 9.06907786235772 12.5 8.84807621135332 12.9283628290596 8.54813332935693 13.2981333293569 8.17836282905962 13.5980762113533 7.75 13.8190778623577 7.27606042997701 13.9544232590366 6.77094453300079 14 6.25 13.9544232590366 5.72905546699921 13.8190778623577 5.22393957002299 13.5980762113533 4.75 13.2981333293569 4.32163717094038 12.9283628290596 3.95186667064307 12.5 3.65192378864669 12.026060429977 3.43092213764228 11.5209445330008 3.29557674096338 11 3.25 5 1 2 6 1 5 7 1 6 8 1 7 9 1 8 10 1 9 14 4 1 11 1 10 12 1 11 13 1 12 14 1 13 15 4 14 16 4 15 17 4 16 18 4 17 19 4 18 20 4 19 23 3 4 21 4 20 22 4 21 23 4 22 24 3 23 25 3 24 26 3 25 27 3 26 28 3 27 29 3 28 30 3 29 33 2 3 31 3 30 32 3 31 33 3 32 34 2 33 35 2 34 36 2 35 37 2 36 38 2 37 39 2 38 40 2 39 41 2 40 42 5 2 42 2 41 
38 36 1 0.0800000008
12 3.2 9.25 12 0 9.25 12.5209445330008 0 9.20442325903662 13.026060429977 0 9.06907786235773 13.5 0 8.84807621135332 13.9283628290596 0 8.54813332935694 14.2981333293569 0 8.17836282905962 14.5980762113533 0 7.75 14.8190778623577 0 7.27606042997701 14.9544232590366 0 6.7709445330008 15 0 6.25000000000001 14.9544232590366 0 5.72905546699922 14.8190778623577 0 5.223939570023 14.5980762113533 0 4.75000000000001 14.2981333293569 0 4.32163717094039 13.9283628290596 0 3.95186667064307 13.5 0 3.65192378864669 13.026060429977 0 3.43092213764228 12.5209445330008 0 3.29557674096338 12 0 3.25 12 3.2 3.25 12.5209445330008 3.2 3.29557674096338 13.026060429977 3.2 3.43092213764227 13.5 3.2 3.65192378864668 13.9283628290596 3.2 3.95186667064307 14.2981333293569 3.2 4.32163717094038 14.5980762113533 3.2 4.75 14.8190778623577 3.2 5.22393957002299 14.9544232590366 3.2 5.72905546699921 15 3.2 6.25 14.9544232590366 3.2 6.77094453300079 14.8190778623577 3.2 7.27606042997701 14.5980762113533 3.2 7.75 14.2981333293569 3.2 8.17836282905962 13.9283628290596 3.2 8.54813332935693 13.5 3.2 8.84807621135331 13.026060429977 3.2 9.06907786235772 12.5209445330008 3.2 9.20442325903662 3.14159265358979 3.2 3.14159265358979 0 3.31612557878923 0 3.49065850398866 0 3.66519142918809 0 3.83972435438752 0 4.01425727958696 0 4.18879020478639 0 4.36332312998582 0 4.53785605518526 0 4.71238898038469 0 4.88692190558412 0 5.06145483078355 0 5.23598775598299 0 5.41052068118242 0 5.58505360638185 0 5.75958653158128 0 5.93411945678072 0 6.10865238198015 0 6.28318530717959 0 6.28318530717959 3.2 6.10865238198015 3.2 5.93411945678072 3.2 5.75958653158129 3.2 5.58505360638185 3.2 5.41052068118242 3.2 5.23598775598299 3.2 5.06145483078356 3.2 4.88692190558412 3.2 4.71238898038469 3.2 4.53785605518526 3.2 4.36332312998582 3.2 4.18879020478639 3.2 4.01425727958696 3.2 3.83972435438753 3.2 3.66519142918809 3.2 3.49065850398866 3.2 3.31612557878923 3.2 3 1 2 38 3 37 36 5 35 34 7 33 32 9 31 30 11 29 28 13 27 26 15 25 24 17 23 22 19 21 29 11 12 28 12 13 27 13 14 26 14 15 25 15 16 24 16 17 23 17 18 20 21 19 22 18 19 23 18 22 30 10 11 25 16 24 31 9 10 27 14 26 32 8 9 29 12 28 33 7 8 31 10 30 33 8 32 35 5 6 36 4 5 37 4 36 37 3 4 38 1 3 7 35 6 35 7 34 
38 36 1 0.0800000008
3.2 12 3.25 0 12 3.25 0 12.5209445330008 3.29557674096338 0 13.026060429977 3.43092213764227 0 13.5 3.65192378864668 0 13.9283628290596 3.95186667064306 0 14.2981333293569 4.32163717094038 0 14.5980762113533 4.75 0 14.8190778623577 5.22393957002299 0 14.9544232590366 5.7290554669992 0 15 6.24999999999999 0 14.9544232590366 6.77094453300078 0 14.8190778623577 7.276060429977 0 14.5980762113533 7.74999999999999 0 14.2981333293569 8.17836282905961 0 13.9283628290596 8.54813332935693 0 13.5 8.84807621135331 0 13.026060429977 9.06907786235772 0 12.5209445330008 9.20442325903662 0 12 9.25 3.2 12 9.25 3.2 12.5209445330008 9.20442325903662 3.2 13.026060429977 9.06907786235772 3.2 13.5 8.84807621135332 3.2 13.9283628290596 8.54813332935693 3.2 14.2981333293569 8.17836282905962 3.2 14.5980762113533 7.75 3.2 14.8190778623577 7.27606042997701 3.2 14.9544232590366 6.77094453300079 3.2 15 6.25 3.2 14.9544232590366 5.72905546699921 3.2 14.8190778623577 5.22393957002299 3.2 14.5980762113533 4.75 3.2 14.2981333293569 4.32163717094038 3.2 13.9283628290596 3.95186667064307 3.2 13.5 3.65192378864669 3.2 13.026060429977 3.43092213764228 3.2 12.5209445330008 3.29557674096338 3.14159265358979 3.2 3.14159265358979 0 3.31612557878923 0 3.49065850398866 0 3.66519142918809 0 3.83972435438752 0 4.01425727958696 0 4.18879020478639 0 4.36332312998582 0 4.53785605518526 0 4.71238898038469 0 4.88692190558412 0 5.06145483078355 0 5.23598775598299 0 5.41052068118242 0 5.58505360638185 0 5.75958653158128 0 5.93411945678072 0 6.10865238198015 0 6.28318530717959 0 6.28318530717959 3.2 6.10865238198015 3.2 5.93411945678072 3.2 5.75958653158129 3.2 5.58505360638185 3.2 5.41052068118242 3.2 5.23598775598299 3.2 5.06145483078356 3.2 4.88692190558412 3.2 4.71238898038469 3.2 4.53785605518526 3.2 4.36332312998582 3.2 4.18879020478639 3.2 4.01425727958696 3.2 3.83972435438753 3.2 3.66519142918809 3.2 3.49065850398866 3.2 3.31612557878923 3.2 3 1 2 38 3 37 36 5 35 34 7 33 32 9 31 30 11 29 28 13 27 26 15 25 24 17 23 22 19 21 29 11 12 28 12 13 27 13 14 26 14 15 25 15 16 24 16 17 23 17 18 20 21 19 22 18 19 23 18 22 30 10 11 25 16 24 31 9 10 27 14 26 32 8 9 29 12 28 33 7 8 31 10 30 33 8 32 35 5 6 36 4 5 37 4 36 37 3 4 38 1 3 7 35 6 35 7 34 
4 2 1 0.0800000008
3.2 9 3.25 0 9 3.25 0 12 3.25 3.2 12 3.25 0 3.2 0 0 3 0 3 3.2 3 4 1 3 1 2 
42 42 1 0.0800000008
0 0 -2.25 0 0 14.75 0 20 14.75 0 20 -2.25 0 9 9.25 0 8.47905546699921 9.20442325903662 0 7.973939570023 9.06907786235773 0 7.5 8.84807621135332 0 7.07163717094038 8.54813332935694 0 6.70186667064307 8.17836282905962 0 6.40192378864669 7.75 0 6.18092213764228 7.27606042997701 0 6.04557674096338 6.7709445330008 0 6 6.25000000000001 0 6.04557674096337 5.72905546699922 0 6.18092213764227 5.223939570023 0 6.40192378864668 4.75000000000001 0 6.70186667064306 4.32163717094039 0 7.07163717094038 3.95186667064307 0 7.49999999999999 3.65192378864669 0 7.97393957002298 3.43092213764228 0 8.4790554669992 3.29557674096338 0 9 3.25 0 12 3.25 0 12.5209445330008 3.29557674096338 0 13.026060429977 3.43092213764227 0 13.5 3.65192378864668 0 13.9283628290596 3.95186667064306 0 14.2981333293569 4.32163717094038 0 14.5980762113533 4.75 0 14.8190778623577 5.22393957002299 0 14.9544232590366 5.7290554669992 0 15 6.24999999999999 0 14.9544232590366 6.77094453300078 0 14.8190778623577 7.276060429977 0 14.5980762113533 7.74999999999999 0 14.2981333293569 8.17836282905961 0 13.9283628290596 8.54813332935693 0 13.5 8.84807621135331 0 13.026060429977 9.06907786235772 0 12.5209445330008 9.20442325903662 0 12 9.25 20 -2.25 20 14.75 0 14.75 0 -2.25 11 9.25 11.5209445330008 9.20442325903662 12.026060429977 9.06907786235773 12.5 8.84807621135332 12.9283628290596 8.54813332935694 13.2981333293569 8.17836282905962 13.5980762113533 7.75 13.8190778623577 7.27606042997701 13.9544232590366 6.7709445330008 14 6.25000000000001 13.9544232590366 5.72905546699922 13.8190778623577 5.223939570023 13.5980762113533 4.75000000000001 13.2981333293569 4.32163717094039 12.9283628290596 3.95186667064307 12.5 3.65192378864669 12.026060429977 3.43092213764228 11.5209445330008 3.29557674096338 11 3.25 8 3.25 7.47905546699921 3.29557674096338 6.973939570023 3.43092213764227 6.5 3.65192378864668 6.07163717094038 3.95186667064306 5.70186667064307 4.32163717094038 5.40192378864669 4.75 5.18092213764228 5.22393957002299 5.04557674096338 5.7290554669992 5 6.24999999999999 5.04557674096337 6.77094453300078 5.18092213764227 7.276060429977 5.40192378864668 7.74999999999999 5.70186667064306 8.17836282905961 6.07163717094038 8.54813332935693 6.49999999999999 8.84807621135331 6.97393957002298 9.06907786235772 7.4790554669992 9.20442325903662 8 9.25 5 2 3 6 2 5 7 2 6 8 2 7 9 2 8 10 2 9 14 1 2 11 2 10 12 2 11 13 2 12 14 2 13 15 1 14 16 1 15 17 1 16 18 1 17 19 1 18 23 4 1 20 1 19 21 1 20 22 1 21 23 1 22 24 4 23 25 4 24 26 4 25 27 4 26 28 4 27 29 4 28 33 3 4 30 4 29 31 4 30 32 4 31 33 4 32 34 3 33 35 3 34 36 3 35 37 3 36 38 3 37 39 3 38 40 3 39 41 3 40 42 5 3 42 3 41 
4 2 1 0.0800000008
3.2 12 9.25 0 12 9.25 0 9 9.25 3.2 9 9.25 0 3.2 0 0 3 0 3 3.2 3 4 1 3 1 2 
42 42 1 0.0800000008
3.2 3.2 0 3.2 20 0 3.2 20 12.5 3.2 3.2 12.5 3.2 9 3.25 3.2 8.47905546699921 3.29557674096338 3.2 7.97393957002299 3.43092213764227 3.2 7.5 3.65192378864668 3.2 7.07163717094038 3.95186667064307 3.2 6.70186667064307 4.32163717094038 3.2 6.40192378864668 4.75 3.2 6.18092213764228 5.22393957002299 3.2 6.04557674096338 5.72905546699921 3.2 6 6.25 3.2 6.04557674096338 6.77094453300079 3.2 6.18092213764228 7.27606042997701 3.2 6.40192378864668 7.75 3.2 6.70186667064307 8.17836282905962 3.2 7.07163717094038 8.54813332935693 3.2 7.5 8.84807621135331 3.2 7.97393957002299 9.06907786235772 3.2 8.47905546699921 9.20442325903662 3.2 9 9.25 3.2 12 9.25 3.2 12.5209445330008 9.20442325903662 3.2 13.026060429977 9.06907786235772 3.2 13.5 8.84807621135332 3.2 13.9283628290596 8.54813332935693 3.2 14.2981333293569 8.17836282905962 3.2 14.5980762113533 7.75 3.2 14.8190778623577 7.27606042997701 3.2 14.9544232590366 6.77094453300079 3.2 15 6.25 3.2 14.9544232590366 5.72905546699921 3.2 14.8190778623577 5.22393957002299 3.2 14.5980762113533 4.75 3.2 14.2981333293569 4.32163717094038 3.2 13.9283628290596 3.95186667064307 3.2 13.5 3.65192378864669 3.2 13.026060429977 3.43092213764228 3.2 12.5209445330008 3.29557674096338 3.2 12 3.25 0 0 16.8 0 16.8 12.5 0 12.5 5.8 3.25 5.27905546699921 3.29557674096338 4.77393957002299 3.43092213764227 4.3 3.65192378864668 3.87163717094038 3.95186667064307 3.50186667064307 4.32163717094038 3.20192378864668 4.75 2.98092213764227 5.22393957002299 2.84557674096338 5.72905546699921 2.8 6.25 2.84557674096338 6.77094453300079 2.98092213764227 7.27606042997701 3.20192378864668 7.75 3.50186667064306 8.17836282905962 3.87163717094038 8.54813332935693 4.3 8.84807621135331 4.77393957002299 9.06907786235772 5.27905546699921 9.20442325903662 5.8 9.25 8.8 9.25 9.32094453300079 9.20442325903662 9.82606042997701 9.06907786235772 10.3 8.84807621135332 10.7283628290596 8.54813332935693 11.0981333293569 8.17836282905962 11.3980762113533 7.75 11.6190778623577 7.27606042997701 11.7544232590366 6.77094453300079 11.8 6.25 11.7544232590366 5.72905546699921 11.6190778623577 5.22393957002299 11.3980762113533 4.75 11.0981333293569 4.32163717094038 10.7283628290596 3.95186667064307 10.3 3.65192378864669 9.82606042997701 3.43092213764228 9.32094453300079 3.29557674096338 8.8 3.25 6 1 5 7 1 6 8 1 7 9 1 8 10 1 9 11 1 10 14 4 1 12 1 11 13 1 12 14 1 13 15 4 14 16 4 15 17 4 16 18 4 17 19 4 18 20 4 19 24 3 4 21 4 20 22 4 21 23 4 22 24 4 23 25 3 24 26 3 25 27 3 26 28 3 27 29 3 28 33 2 3 30 3 29 31 3 30 32 3 31 33 3 32 34 2 33 35 2 34 36 2 35 37 2 36 38 2 37 39 2 38 42 1 2 40 2 39 41 2 40 42 5 1 42 2 41 
38 36 1 0.0800000008
3.2 9 9.25 0 9 9.25 0 8.47905546699921 9.20442325903662 0 7.973939570023 9.06907786235773 0 7.5 8.84807621135332 0 7.07163717094038 8.54813332935694 0 6.70186667064307 8.17836282905962 0 6.40192378864669 7.75 0 6.18092213764228 7.27606042997701 0 6.04557674096338 6.7709445330008 0 6 6.25000000000001 0 6.04557674096337 5.72905546699922 0 6.18092213764227 5.223939570023 0 6.40192378864668 4.75000000000001 0 6.70186667064306 4.32163717094039 0 7.07163717094038 3.95186667064307 0 7.49999999999999 3.65192378864669 0 7.97393957002298 3.43092213764228 0 8.4790554669992 3.29557674096338 0 9 3.25 3.2 9 3.25 3.2 8.47905546699921 3.29557674096338 3.2 7.97393957002299 3.43092213764227 3.2 7.5 3.65192378864668 3.2 7.07163717094038 3.95186667064307 3.2 6.70186667064307 4.32163717094038 3.2 6.40192378864668 4.75 3.2 6.18092213764228 5.22393957002299 3.2 6.04557674096338 5.72905546699921 3.2 6 6.25 3.2 6.04557674096338 6.77094453300079 3.2 6.18092213764228 7.27606042997701 3.2 6.40192378864668 7.75 3.2 6.70186667064307 8.17836282905962 3.2 7.07163717094038 8.54813332935693 3.2 7.5 8.84807621135331 3.2 7.97393957002299 9.06907786235772 3.2 8.47905546699921 9.20442325903662 3.14159265358979 3.2 3.14159265358979 0 3.31612557878923 0 3.49065850398866 0 3.66519142918809 0 3.83972435438752 0 4.01425727958696 0 4.18879020478639 0 4.36332312998582 0 4.53785605518526 0 4.71238898038469 0 4.88692190558412 0 5.06145483078355 0 5.23598775598299 0 5.41052068118242 0 5.58505360638185 0 5.75958653158128 0 5.93411945678072 0 6.10865238198015 0 6.28318530717959 0 6.28318530717959 3.2 6.10865238198015 3.2 5.93411945678072 3.2 5.75958653158129 3.2 5.58505360638185 3.2 5.41052068118242 3.2 5.23598775598299 3.2 5.06145483078356 3.2 4.88692190558412 3.2 4.71238898038469 3.2 4.53785605518526 3.2 4.36332312998582 3.2 4.18879020478639 3.2 4.01425727958696 3.2 3.83972435438753 3.2 3.66519142918809 3.2 3.49065850398866 3.2 3.31612557878923 3.2 3 1 2 38 3 37 36 5 35 34 7 33 32 9 31 30 11 29 28 13 27 26 15 25 24 17 23 22 19 21 29 11 12 28 12 13 27 13 14 26 14 15 25 15 16 24 16 17 23 17 18 20 21 19 22 18 19 23 18 22 30 10 11 25 16 24 31 9 10 27 14 26 32 8 9 29 12 28 33 7 8 31 10 30 33 8 32 35 5 6 36 4 5 37 4 36 37 3 4 38 1 3 7 35 6 35 7 34 
3 1 1 0.0800000008
3.2 20 0 3.2 3.2 0 20 3.2 0 -4.56412985093815 12.2358701490618 -4.56412985093815 -4.56412985093815 12.2358701490619 -4.56412985093815 3 1 2 
4 2 1 0.0800000008
3.2 20 0 3.2 20 -2.25 20 3.2 -2.25 20 3.2 0 23.758787847868 0 23.758787847868 2.25 0 2.25 0 0 3 1 2 4 1 3 
6 4 1 0.0800000008
20 3.2 0 20 3.2 12.5 20 3.2 14.75 20 0 14.75 20 0 -2.25 20 3.2 -2.25 3.2 0 3.2 12.5 3.2 14.75 0 14.75 0 -2.25 3.2 -2.25 4 1 2 4 2 3 5 6 1 5 1 4 
5 3 1 0.0800000008
0 0 -2.25 20 0 -2.25 20 3.2 -2.25 3.2 20 -2.25 0 20 -2.25 -7.76412985093815 -7.76412985093815 12.2358701490618 -7.76412985093815 12.2358701490618 -4.56412985093815 -4.56412985093815 12.2358701490619 -7.76412985093815 12.2358701490618 3 1 2 4 1 3 5 1 4 
6 4 1 0.0800000008
0 20 -2.25 0 20 14.75 3.2 20 14.75 3.2 20 12.5 3.2 20 0 3.2 20 -2.25 3.2 -2.25 3.2 14.75 0 14.75 0 12.5 0 0 0 -2.25 4 1 2 4 2 3 5 1 4 6 1 5 
4 2 1 0.0800000008
20 3.2 12.5 3.2 20 12.5 3.2 20 14.75 20 3.2 14.75 0 0 23.758787847868 0 23.758787847868 2.25 0 2.25 3 1 2 4 1 3 
3 1 1 0.0800000008
3.2 3.2 12.5 20 3.2 12.5 3.2 20 12.5 -4.56412985093815 -4.56412985093815 12.2358701490619 -4.56412985093815 -4.56412985093815 12.2358701490619 3 1 2 
5 3 1 0.0800000008
0 20 14.75 0 0 14.75 20 0 14.75 20 3.2 14.75 3.2 20 14.75 -7.76412985093815 12.2358701490618 -7.76412985093815 -7.76412985093815 12.2358701490618 -7.76412985093815 12.2358701490618 -4.56412985093815 -4.56412985093815 12.2358701490619 5 1 2 4 2 3 5 2 4 

TShapes 128
Ve
1e-07
9 0 3.25
0 0

0101101
*
Ve
1e-07
9 3.2 3.25
0 0

0101101
*
Ed
 1e-07 1 1 0
1  1 0 0 3.2
2  1 1 0 0 3.2
6  1 1 0
6  2 2 0
0

0101000
+128 0 -127 0 *
Ve
1e-07
9 0 9.25
0 0

0101101
*
Ed
 1e-07 1 1 0
1  2 0 3.14159265358979 6.28318530717959
2  2 1 0 3.14159265358979 6.28318530717959
6  3 1 0
6  4 3 0
0

0101000
+128 0 -125 0 *
Ve
1e-07
9 3.2 9.25
0 0

0101101
*
Ed
 1e-07 1 1 0
1  3 0 0 3.2
2  3 1 0 0 3.2
6  5 1 0
6  6 4 0
0

0101000
+125 0 -123 0 *
Ed
 1e-07 1 1 0
1  4 0 0 3.14159265358979
2  4 1 0 0 3.14159265358979
6  7 1 0
6  8 5 0
0

0101000
+123 0 -127 0 *
Wi

0101100
-126 0 +124 0 +122 0 +121 0 *
Fa
0  1e-07 1 0
2  1
0111000
+120 0 *
Ve
1e-07
12 3.2 3.25
0 0

0101101
*
Ed
 1e-07 1 1 0
1  5 0 -7 -4
6  9 2 0
6  10 5 0
0

0101000
+127 0 -118 0 *
Ve
1e-07
12 0 3.25
0 0

0101101
*
Ed
 1e-07 1 1 0
1  6 0 -6 -3
6  11 2 0
6  12 3 0
0

0101000
+116 0 -128 0 *
Ed
 1e-07 1 1 0
1  7 0 0 3.2
2  5 3 0 0 3.2
6  13 2 0
6  14 6 0
0

0101000
+116 0 -118 0 *
Wi

0101000
-117 0 -126 0 -115 0 +114 0 *
Fa
0  1e-07 2 0
2  2
0111000
-113 0 *
Ve
1e-07
12 0 9.25
0 0

0101101
*
Ve
1e-07
12 3.2 9.25
0 0

0101101
*
Ed
 1e-07 1 1 0
1  8 0 0 3.2
2  6 3 0 0 3.2
6  15 6 0
6  16 4 0
0

0101000
+111 0 -110 0 *
Ed
 1e-07 1 1 0
1  9 0 3.14159265358979 6.28318530717959
2  7 3 0 3.14159265358979 6.28318530717959
6  17 6 0
6  18 3 0
0

0101000
+111 0 -116 0 *
Ed
 1e-07 1 1 0
1  10 0 0 3.14159265358979
2  8 3 0 0 3.14159265358979
6  19 6 0
6  20 5 0
0

0101000
+118 0 -110 0 *
Wi

0101100
-109 0 +108 0 +114 0 +107 0 *
Fa
0  1e-07 3 0
2  6
0111000
+106 0 *
Ed
 1e-07 1 1 0
1  11 0 2.5 5.5
6  21 4 0
6  22 5 0
0

0101000
+110 0 -123 0 *
Ed
 1e-07 1 1 0
1  12 0 4.5 7.5
6  23 4 0
6  24 3 0
0

0101000
+125 0 -111 0 *
Wi

0101000
-104 0 -109 0 -103 0 +122 0 *
Fa
0  1e-07 4 0
2  4
0111000
-102 0 *
Ve
1e-07
0 12 3.25
0 0

0101101
*
Ve
1e-07
3.2 12 3.25
0 0

0101101
*
Ed
 1e-07 1 1 0
1  13 0 0 3.2
2  9 5 0 0 3.2
6  25 7 0
6  26 8 0
0

0101000
+100 0 -99 0 *
Ve
1e-07
0 12 9.25
0 0

0101101
*
Ed
 1e-07 1 1 0
1  14 0 3.14159265358979 6.28318530717959
2  10 5 0 3.14159265358979 6.28318530717959
6  27 7 0
6  28 9 0
0

0101000
+100 0 -97 0 *
Ve
1e-07
3.2 12 9.25
0 0

0101101
*
Ed
 1e-07 1 1 0
1  15 0 0 3.2
2  11 5 0 0 3.2
6  29 7 0
6  30 10 0
0

0101000
+97 0 -95 0 *
Ed
 1e-07 1 1 0
1  16 0 0 3.14159265358979
2  12 5 0 0 3.14159265358979
6  31 7 0
6  32 11 0
0

0101000
+95 0 -99 0 *
Wi

0101100
-98 0 +96 0 +94 0 +93 0 *
Fa
0  1e-07 5 0
2  7
0111000
+92 0 *
Ve
1e-07
3.2 9 3.25
0 0

0101101
*
Ed
 1e-07 1 1 0
1  17 0 -5.9 -2.9
6  33 8 0
6  34 11 0
0

0101000
+99 0 -90 0 *
Ve
1e-07
0 9 3.25
0 0

0101101
*
Ed
 1e-07 1 1 0
1  18 0 -5.5 -2.5
6  35 8 0
6  36 9 0
0

0101000
+88 0 -100 0 *
Ed
 1e-07 1 1 0
1  19 0 0 3.2
2  13 7 0 0 3.2
6  37 8 0
6  38 12 0
0

0101000
+88 0 -90 0 *
Wi

0101000
-89 0 -98 0 -87 0 +86 0 *
Fa
0  1e-07 6 0
2  8
0111000
-85 0 *
Ve
1e-07
0 9 9.25
0 0

0101101
*
Ve
1e-07
3.2 9 9.25
0 0

0101101
*
Ed
 1e-07 1 1 0
1  20 0 0 3.2
2  14 7 0 0 3.2
6  39 12 0
6  40 10 0
0

0101000
+83 0 -82 0 *
Ed
 1e-07 1 1 0
1  21 0 3.14159265358979 6.28318530717959
2  15 7 0 3.14159265358979 6.28318530717959
6  41 12 0
6  42 9 0
0

0101000
+83 0 -88 0 *
Ed
 1e-07 1 1 0
1  22 0 0 3.14159265358979
2  16 7 0 0 3.14159265358979
6  43 12 0
6  44 11 0
0

0101000
+90 0 -82 0 *
Wi

0101100
-81 0 +80 0 +86 0 +79 0 *
Fa
0  1e-07 7 0
2  12
0111000
+78 0 *
Ed
 1e-07 1 1 0
1  23 0 1.4 4.4
6  45 10 0
6  46 11 0
0

0101000
+82 0 -95 0 *
Ed
 1e-07 1 1 0
1  24 0 4 7
6  47 10 0
6  48 9 0
0

0101000
+97 0 -83 0 *
Wi

0101000
-76 0 -81 0 -75 0 +94 0 *
Fa
0  1e-07 8 0
2  10
0111000
-74 0 *
Ve
1e-07
3.2 20 0
0 0

0101101
*
Ve
1e-07
3.2 3.2 0
0 0

0101101
*
Ed
 1e-07 1 1 0
1  25 0 0 16.8
6  49 13 0
6  50 11 0
0

0101000
+72 0 -71 0 *
Ve
1e-07
20 3.2 0
0 0

0101101
*
Ed
 1e-07 1 1 0
1  26 0 0 16.8
6  51 13 0
6  52 5 0
0

0101000
+71 0 -69 0 *
Ed
 1e-07 1 1 0
1  27 0 0 23.758787847868
6  53 13 0
6  54 14 0
0

0101000
+69 0 -72 0 *
Wi

0101000
+70 0 +68 0 +67 0 *
Fa
0  1e-07 9 0
2  13
0111000
+66 0 *
Ve
1e-07
20 3.2 -2.25
0 0

0101101
*
Ed
 1e-07 1 1 0
1  28 0 0 2.25
6  55 14 0
6  56 15 0
0

0101000
+69 0 -64 0 *
Ve
1e-07
3.2 20 -2.25
0 0

0101101
*
Ed
 1e-07 1 1 0
1  29 0 0 23.758787847868
6  57 14 0
6  58 16 0
0

0101000
+64 0 -62 0 *
Ed
 1e-07 1 1 0
1  30 0 0 2.25
6  59 14 0
6  60 17 0
0

0101000
+72 0 -62 0 *
Wi

0101000
-67 0 +63 0 +61 0 -60 0 *
Fa
0  1e-07 10 0
2  14
0111000
-59 0 *
Ve
1e-07
0 20 -2.25
0 0

0101101
*
Ve
1e-07
0 0 -2.25
0 0

0101101
*
Ed
 1e-07 1 1 0
1  31 0 0 20
6  61 16 0
6  62 9 0
0

0101000
+57 0 -56 0 *
Ed
 1e-07 1 1 0
1  32 0 0 3.2
6  63 16 0
6  64 17 0
0

0101000
+62 0 -57 0 *
Ve
1e-07
20 0 -2.25
0 0

0101101
*
Ed
 1e-07 1 1 0
1  33 0 0 3.2
6  65 16 0
6  66 15 0
0

0101000
+53 0 -64 0 *
Ed
 1e-07 1 1 0
1  34 0 0 20
6  67 16 0
6  68 3 0
0

0101000
+56 0 -53 0 *
Wi

0101000
-55 0 -54 0 -61 0 -52 0 -51 0 *
Fa
0  1e-07 11 0
2  16
0111000
-50 0 *
Ve
1e-07
20 3.2 12.5
0 0

0101101
*
Ve
1e-07
3.2 20 12.5
0 0

0101101
*
Ed
 1e-07 1 1 0
1  35 0 0 23.758787847868
6  69 18 0
6  70 19 0
0

0101000
+48 0 -47 0 *
Ve
1e-07
3.2 20 14.75
0 0

0101101
*
Ed
 1e-07 1 1 0
1  36 0 0 2.25
6  71 18 0
6  72 17 0
0

0101000
+47 0 -45 0 *
Ve
1e-07
20 3.2 14.75
0 0

0101101
*
Ed
 1e-07 1 1 0
1  37 0 0 23.758787847868
6  73 18 0
6  74 20 0
0

0101000
+43 0 -45 0 *
Ed
 1e-07 1 1 0
1  38 0 0 2.25
6  75 18 0
6  76 15 0
0

0101000
+48 0 -43 0 *
Wi

0101000
+46 0 +44 0 -42 0 -41 0 *
Fa
0  1e-07 12 0
2  18
0111000
+40 0 *
Ve
1e-07
0 20 14.75
0 0

0101101
*
Ve
1e-07
0 0 14.75
0 0

0101101
*
Ed
 1e-07 1 1 0
1  39 0 0 20
6  77 20 0
6  78 9 0
0

0101000
+38 0 -37 0 *
Ve
1e-07
20 0 14.75
0 0

0101101
*
Ed
 1e-07 1 1 0
1  40 0 0 20
6  79 20 0
6  80 3 0
0

0101000
+37 0 -35 0 *
Ed
 1e-07 1 1 0
1  41 0 0 3.2
6  81 20 0
6  82 15 0
0

0101000
+35 0 -43 0 *
Ed
 1e-07 1 1 0
1  42 0 0 3.2
6  83 20 0
6  84 17 0
0

0101000
+45 0 -38 0 *
Wi

0101000
+36 0 +34 0 +33 0 +42 0 +32 0 *
Fa
0  1e-07 13 0
2  20
0111000
+31 0 *
Ve
1e-07
3.2 3.2 12.5
0 0

0101101
*
Ed
 1e-07 1 1 0
1  43 0 -16.8 0
6  85 19 0
6  86 11 0
0

0101000
+29 0 -47 0 *
Ed
 1e-07 1 1 0
1  44 0 -16.8 0
6  87 19 0
6  88 5 0
0

0101000
+48 0 -29 0 *
Wi

0101000
+28 0 -46 0 +27 0 *
Fa
0  1e-07 14 0
2  19
0111000
-26 0 *
Ed
 1e-07 1 1 0
1  45 0 -14.75 2.25
6  89 17 0
6  90 9 0
0

0101000
+38 0 -57 0 *
Ed
 1e-07 1 1 0
1  46 0 0 12.5
6  91 17 0
6  92 11 0
0

0101000
+72 0 -47 0 *
Wi

0101000
-24 0 -32 0 -44 0 -23 0 +60 0 +54 0 *
Fa
0  1e-07 15 0
2  17
0111000
+22 0 *
Ed
 1e-07 1 1 0
1  47 0 0 12.5
6  93 11 0
6  94 5 0
0

0101000
+71 0 -29 0 *
Wi

0101000
-70 0 +23 0 -28 0 -20 0 *
Wi

0101000
+79 0 +76 0 +93 0 +89 0 *
Fa
0  1e-07 16 0
2  11
0111000
+19 0 +18 0 *
Ed
 1e-07 1 1 0
1  48 0 0 12.5
6  95 5 0
6  96 15 0
0

0101000
+69 0 -48 0 *
Wi

0101000
-68 0 +20 0 -27 0 -16 0 *
Wi

0101000
+107 0 +104 0 +121 0 +117 0 *
Fa
0  1e-07 17 0
2  5
0111000
+15 0 +14 0 *
Ed
 1e-07 1 1 0
1  49 0 -14.75 2.25
6  97 15 0
6  98 3 0
0

0101000
+35 0 -53 0 *
Wi

0101000
+16 0 +41 0 -33 0 +12 0 +52 0 -63 0 *
Fa
0  1e-07 18 0
2  15
0111000
+11 0 *
Ed
 1e-07 1 1 0
1  50 0 -2.25 14.75
6  99 3 0
6  100 9 0
0

0101000
+56 0 -37 0 *
Wi

0101000
-12 0 -34 0 -9 0 +51 0 *
Wi

0101000
+108 0 +115 0 +124 0 +103 0 *
Fa
0  1e-07 19 0
2  3
0111000
+8 0 +7 0 *
Wi

0101000
+9 0 -36 0 +24 0 +55 0 *
Wi

0101000
+80 0 +87 0 +96 0 +75 0 *
Fa
0  1e-07 20 0
2  9
0111000
+5 0 +4 0 *
Sh

0101100
-119 0 -112 0 -105 0 -101 0 -91 0 -84 0 -77 0 -73 0 +65 0 -58 0 
-49 0 +39 0 +30 0 -25 0 +21 0 +17 0 +13 0 +10 0 +6 0 +3 0 
*
So

0100000
+2 0 *

+1 0 